<svg xmlns="http://www.w3.org/2000/svg" width="140" height="140" viewBox="0 0 140 140">
  <g fill="#fff">
    <path d="M 96.73710632324219 139.0475769042969 C 96.48677825927734 139.047607421875 96.2342529296875 139.0263824462891 95.98654174804688 138.9845123291016 L 70.91647338867188 134.7477874755859 C 70.61454772949219 134.6967620849609 70.30619812011719 134.6709136962891 70 134.6709136962891 C 69.99990844726562 134.6709136962891 69.99977111816406 134.6709136962891 69.99967956542969 134.6709136962891 C 69.69355010986328 134.6709136962891 69.38536071777344 134.69677734375 69.08352661132812 134.7477874755859 L 44.0134162902832 138.9845123291016 C 43.76581954956055 139.0263671875 43.51329040527344 139.0475769042969 43.26283645629883 139.0475769042969 C 41.80927276611328 139.047607421875 40.43843460083008 138.3399810791016 39.59585571289062 137.1547088623047 L 24.86445426940918 116.4316558837891 C 24.50710868835449 115.9289627075195 24.07103729248047 115.4928894042969 23.56836318969727 115.1355285644531 L 2.845309019088745 100.4041290283203 C 1.44809091091156 99.41087341308594 0.7298363447189331 97.67688751220703 1.015509128570557 95.98656463623047 L 5.252236366271973 70.91647338867188 C 5.355000019073486 70.30832672119141 5.355000019073486 69.69163513183594 5.252236366271973 69.08352661132812 L 1.015509128570557 44.01343536376953 C 0.7298363447189331 42.3231086730957 1.44809091091156 40.58910751342773 2.845309019088745 39.59587097167969 L 23.56834602355957 24.86445426940918 C 24.07103729248047 24.50710868835449 24.50710868835449 24.07103729248047 24.86445426940918 23.56834602355957 L 39.59587097167969 2.845309019088745 C 40.43841934204102 1.660054564476013 41.80925369262695 0.9524363875389099 43.2628173828125 0.9524363875389099 C 43.51325607299805 0.9524363875389099 43.76580047607422 0.973654568195343 44.01343536376953 1.015509128570557 L 69.08352661132812 5.252218246459961 C 69.38543701171875 5.303236484527588 69.69377899169922 5.329109191894531 70 5.329109191894531 C 70.30622100830078 5.329109191894531 70.61456298828125 5.303236484527588 70.91648864746094 5.252200126647949 L 95.98656463623047 1.015509128570557 C 96.23419952392578 0.973654568195343 96.48674774169922 0.9524363875389099 96.7371826171875 0.9524363875389099 C 98.19074249267578 0.9524363875389099 99.56156158447266 1.660054564476013 100.4041290283203 2.845290899276733 L 115.1355667114258 23.56834602355957 C 115.4929275512695 24.07105445861816 115.9290008544922 24.50710868835449 116.4316329956055 24.86445426940918 L 137.1547088623047 39.59587097167969 C 138.5519256591797 40.58912658691406 139.2701873779297 42.32312774658203 138.9845123291016 44.01343536376953 L 134.7477569580078 69.08354187011719 C 134.6450042724609 69.69165802001953 134.6450042724609 70.30834197998047 134.7477569580078 70.91648864746094 L 138.9845123291016 95.98657989501953 C 139.2701568603516 97.67688751220703 138.5519104003906 99.410888671875 137.1546936035156 100.4041442871094 L 116.4316558837891 115.1355667114258 C 115.9289474487305 115.4929275512695 115.4928894042969 115.9290008544922 115.1355438232422 116.4316329956055 L 100.4041061401367 137.1547088623047 C 99.56158447265625 138.3398895263672 98.19074249267578 139.0475158691406 96.73710632324219 139.0475769042969 Z" stroke="none"/>
    <path d="M 43.26287078857422 1.452423095703125 C 41.97080230712891 1.452468872070312 40.75231170654297 2.081466674804688 40.00340270996094 3.134994506835938 L 25.27198028564453 23.85805511474609 C 24.88214874267578 24.40643310546875 24.40643310546875 24.88214874267578 23.85805511474609 25.27198028564453 L 3.135025024414062 40.00340270996094 C 1.893035888671875 40.88627624511719 1.254592895507812 42.42759704589844 1.508514404296875 43.93010711669922 L 5.7452392578125 69.00022125244141 C 5.857345581054688 69.66361999511719 5.857345581054688 70.33636474609375 5.7452392578125 70.99980163574219 L 1.50848388671875 96.06988525390625 C 1.25457763671875 97.57236480712891 1.893020629882812 99.11370849609375 3.134994506835938 99.99659729003906 L 23.85805511474609 114.7280197143555 C 24.40645599365234 115.1178588867188 24.88214874267578 115.5935821533203 25.27196502685547 116.1419296264648 L 40.00337982177734 136.8650054931641 C 40.75234222412109 137.9185791015625 41.97083282470703 138.5475769042969 43.26285552978516 138.5475769042969 C 43.48542022705078 138.5475769042969 43.70990753173828 138.5287017822266 43.93009185791016 138.4915161132812 L 69.00022125244141 134.2547760009766 C 69.65900421142578 134.1434326171875 70.34091186523438 134.1434326171875 70.99980163574219 134.2547760009766 L 96.06985473632812 138.4915161132812 C 96.29005432128906 138.5287017822266 96.51454162597656 138.5475769042969 96.73710632324219 138.5475769042969 C 98.02912902832031 138.5475769042969 99.24763488769531 137.9185791015625 99.99658203125 136.8650054931641 L 114.7280349731445 116.1419448852539 C 115.1178741455078 115.5935668945312 115.5935668945312 115.1178741455078 116.1419448852539 114.7280197143555 L 136.8650054931641 99.99663543701172 C 138.1069641113281 99.11372375488281 138.7454223632812 97.57240295410156 138.4915161132812 96.06990814208984 L 134.2547607421875 70.99980163574219 C 134.1426544189453 70.33638000488281 134.1426544189453 69.66363525390625 134.2547607421875 69.00022125244141 L 138.4915161132812 43.93013000488281 C 138.7454223632812 42.42761993408203 138.1069641113281 40.88627624511719 136.8650054931641 40.00340270996094 L 116.1419448852539 25.27196502685547 C 115.5935668945312 24.88212585449219 115.1178741455078 24.40643310546875 114.7280197143555 23.85805511474609 L 99.99659729003906 3.134994506835938 C 99.24763488769531 2.0814208984375 98.02915954589844 1.452423095703125 96.73716735839844 1.452423095703125 C 96.51458740234375 1.452423095703125 96.29006958007812 1.471298217773438 96.06988525390625 1.50848388671875 L 70.99977874755859 5.745223999023438 C 70.34113311767578 5.856521606445312 69.65888977050781 5.856521606445312 69.00019836425781 5.745223999023438 L 43.93013000488281 1.50848388671875 C 43.7098388671875 1.471267700195312 43.48536682128906 1.452392578125 43.26290893554688 1.452423095703125 L 43.26287078857422 1.452423095703125 M 43.26284027099609 0.452423095703125 C 43.53951263427734 0.4524078369140625 43.81818389892578 0.47540283203125 44.09674835205078 0.5224761962890625 L 69.16683959960938 4.759201049804688 C 69.71835327148438 4.852401733398438 70.28164672851562 4.852401733398438 70.83316040039062 4.759201049804688 L 95.90325927734375 0.5224761962890625 C 97.79386901855469 0.20294189453125 99.70070648193359 0.9928131103515625 100.811653137207 2.55560302734375 L 115.5430755615234 23.27865600585938 C 115.8671646118164 23.73454284667969 116.2654571533203 24.13283538818359 116.7213439941406 24.45692443847656 L 137.4443969726562 39.18834686279297 C 139.0071868896484 40.29929351806641 139.7970123291016 42.20610809326172 139.4775238037109 44.09674835205078 L 135.2407836914062 69.16685485839844 C 135.1475830078125 69.7183837890625 135.1475830078125 70.28163909912109 135.2407836914062 70.83318328857422 L 139.4775238037109 95.90327453613281 C 139.7970123291016 97.79389190673828 139.0071868896484 99.70071411132812 137.4443969726562 100.8116760253906 L 116.7213439941406 115.5430755615234 C 116.2654571533203 115.8671646118164 115.8671646118164 116.2654571533203 115.5430755615234 116.7213439941406 L 100.811637878418 137.4443969726562 C 99.70069122314453 139.0071868896484 97.79388427734375 139.7970123291016 95.90323638916016 139.4775238037109 L 70.83316040039062 135.2407989501953 C 70.28162384033203 135.1475982666016 69.71836090087891 135.1475982666016 69.16683959960938 135.2407989501953 L 44.09672546386719 139.4775238037109 C 42.20606994628906 139.7970123291016 40.29927825927734 139.0071868896484 39.18832397460938 137.4443969726562 L 24.4569091796875 116.7213287353516 C 24.13283538818359 116.2654342651367 23.73454284667969 115.8671417236328 23.27865600585938 115.5430526733398 L 2.55560302734375 100.811653137207 C 0.9928131103515625 99.70069122314453 0.2029571533203125 97.79386901855469 0.5224761962890625 95.90325927734375 L 4.75921630859375 70.83316040039062 C 4.8524169921875 70.2816162109375 4.8524169921875 69.71836090087891 4.75921630859375 69.16683959960938 L 0.522491455078125 44.09674835205078 C 0.2029876708984375 42.20610809326172 0.9928131103515625 40.29929351806641 2.555618286132812 39.18834686279297 L 23.27865600585938 24.45692443847656 C 23.73456573486328 24.13283538818359 24.13283538818359 23.73456573486328 24.45692443847656 23.27865600585938 L 39.18834686279297 2.55560302734375 C 40.13560485839844 1.22308349609375 41.66173553466797 0.4524993896484375 43.26284027099609 0.452423095703125 Z" stroke="none" fill="#e5e5e5"/>
  </g>
</svg>
